<svg width="164" height="32" viewBox="0 0 164 32" fill="none" xmlns="http://www.w3.org/2000/svg">
<rect width="32" height="32" rx="8" fill="url(#paint0_linear_60_1020)"/>
<path d="M15.4253 26C13.9808 26 12.7024 25.6173 11.59 24.852C10.4943 24.0867 9.63091 22.9898 9 21.5612L12.0632 19.9541C12.7273 21.6378 13.8729 22.4796 15.5 22.4796C16.3467 22.4796 17.0607 22.267 17.6418 21.8418C18.2229 21.4167 18.5134 20.8895 18.5134 20.2602C18.5134 19.665 18.3225 19.1718 17.9406 18.7806C17.5754 18.3895 17.0192 18.0153 16.272 17.6582C15.857 17.4711 15.2925 17.25 14.5785 16.9949C13.8646 16.7228 13.2503 16.4677 12.7356 16.2296C11.7561 15.7874 10.9757 15.1582 10.3946 14.3418C9.81354 13.5085 9.52299 12.5391 9.52299 11.4337C9.52299 9.78401 10.0626 8.46599 11.1418 7.47959C12.2375 6.4932 13.599 6 15.2261 6C16.6207 6 17.7331 6.30612 18.5632 6.91837C19.41 7.5136 20.1654 8.32143 20.8295 9.34184L17.841 11.2296C17.1437 10.0901 16.2554 9.52041 15.1762 9.52041C14.5619 9.52041 14.0473 9.69898 13.6322 10.0561C13.2171 10.3963 13.0096 10.8299 13.0096 11.3571C13.0096 12.0714 13.4911 12.6412 14.454 13.0663C14.7197 13.1854 15.3008 13.432 16.1973 13.8061C17.1105 14.1633 17.8825 14.4864 18.5134 14.7755C19.5594 15.2517 20.3978 15.949 21.0287 16.8673C21.6762 17.7687 22 18.8061 22 19.9796C22 21.7993 21.3774 23.2619 20.1322 24.3673C18.9036 25.4558 17.3346 26 15.4253 26Z" fill="white"/>
<path d="M50.4695 27C48.7903 27 47.3041 26.5725 46.011 25.7175C44.7371 24.8625 43.7334 23.6369 43 22.0409L46.561 20.2454C47.3331 22.1264 48.6649 23.0669 50.5564 23.0669C51.5407 23.0669 52.3706 22.8294 53.0462 22.3544C53.7217 21.8794 54.0595 21.2904 54.0595 20.5874C54.0595 19.9223 53.8375 19.3713 53.3936 18.9343C52.969 18.4973 52.3224 18.0793 51.4538 17.6803C50.9713 17.4713 50.3151 17.2243 49.4851 16.9393C48.6552 16.6353 47.9411 16.3503 47.3427 16.0843C46.204 15.5903 45.2968 14.8872 44.6213 13.9752C43.9458 13.0442 43.608 11.9612 43.608 10.7261C43.608 8.88311 44.2353 7.41057 45.4898 6.30855C46.7637 5.20653 48.3464 4.65551 50.2379 4.65551C51.8592 4.65551 53.1523 4.99752 54.1174 5.68154C55.1017 6.34655 55.9799 7.24907 56.752 8.38909L53.2778 10.4981C52.4672 9.22511 51.4345 8.5886 50.18 8.5886C49.4658 8.5886 48.8675 8.7881 48.385 9.18711C47.9025 9.56712 47.6612 10.0516 47.6612 10.6406C47.6612 11.4387 48.2209 12.0752 49.3404 12.5502C49.6492 12.6832 50.3247 12.9587 51.367 13.3767C52.4285 13.7757 53.326 14.1367 54.0595 14.4597C55.2755 14.9917 56.2502 15.7708 56.9836 16.7968C57.7363 17.8038 58.1127 18.9628 58.1127 20.2739C58.1127 22.3069 57.3889 23.9409 55.9413 25.176C54.5131 26.392 52.6891 27 50.4695 27Z" fill="white"/>
<path d="M61.0178 26.8005V12.6927H64.7815V13.8897C65.6887 12.9587 66.8274 12.4932 68.1978 12.4932C69.8577 12.4932 71.2763 13.1867 72.4537 14.5737C73.8047 13.1867 75.4646 12.4932 77.4333 12.4932C79.2669 12.4932 80.7821 13.1202 81.9787 14.3742C83.1947 15.6283 83.8027 17.2053 83.8027 19.1053V26.8005H80.0969V19.1053C80.0969 18.2693 79.817 17.5663 79.2573 16.9963C78.7168 16.4073 78.051 16.1128 77.2596 16.1128C76.4683 16.1128 75.7927 16.4073 75.233 16.9963C74.6733 17.5663 74.3934 18.2693 74.3934 19.1053V26.8005H70.6297V19.1053C70.6297 18.2883 70.3306 17.6138 69.7322 17.0818C69.1532 16.5308 68.4584 16.2553 67.6477 16.2553C66.8371 16.2553 66.1615 16.5308 65.6211 17.0818C65.0807 17.6138 64.8008 18.2883 64.7815 19.1053V26.8005H61.0178Z" fill="white"/>
<path d="M101.236 12.6927V26.8005H97.4721V25.632C97.3756 25.727 97.2308 25.8505 97.0378 26.0025C96.8448 26.1545 96.4298 26.3635 95.7929 26.6295C95.156 26.8765 94.4901 27 93.7952 27C91.7493 27 90.0026 26.297 88.555 24.891C87.1267 23.4849 86.4126 21.7749 86.4126 19.7608C86.4126 17.7278 87.1267 16.0083 88.555 14.6022C90.0026 13.1962 91.7493 12.4932 93.7952 12.4932C94.4901 12.4932 95.1367 12.6072 95.735 12.8352C96.3526 13.0632 96.7966 13.2912 97.0668 13.5192L97.4721 13.8612V12.6927H101.236ZM93.8531 23.2949C94.8568 23.2949 95.7157 22.9624 96.4298 22.2974C97.144 21.6134 97.501 20.7679 97.501 19.7608C97.501 18.7538 97.144 17.9083 96.4298 17.2243C95.7157 16.5403 94.8568 16.1983 93.8531 16.1983C92.8495 16.1983 91.9809 16.5403 91.2475 17.2243C90.5334 17.9083 90.1763 18.7538 90.1763 19.7608C90.1763 20.7679 90.5334 21.6134 91.2475 22.2974C91.9616 22.9624 92.8302 23.2949 93.8531 23.2949Z" fill="white"/>
<path d="M104.572 26.8005V12.7212H108.335V14.2602C109.011 13.0822 110.092 12.4932 111.578 12.4932C112.466 12.4932 113.412 12.7402 114.415 13.2342L112.997 16.7398C112.437 16.4168 111.877 16.2553 111.317 16.2553C110.468 16.2553 109.754 16.4928 109.175 16.9678C108.615 17.4428 108.335 18.1553 108.335 19.1053V26.8005H104.572Z" fill="white"/>
<path d="M117.497 26.8005V16.2553H115.007V12.7212H117.497V7.59108H121.26V12.7212H123.75V16.2553H121.26V26.8005H117.497Z" fill="white"/>
<path d="M126.221 4H129.985V26.8005H126.221V4Z" fill="white"/>
<path d="M144.729 24.891C143.301 26.297 141.564 27 139.518 27C137.472 27 135.735 26.297 134.306 24.891C132.878 23.4659 132.164 21.7464 132.164 19.7323C132.164 17.7373 132.878 16.0368 134.306 14.6307C135.735 13.2057 137.472 12.4932 139.518 12.4932C141.564 12.4932 143.301 13.2057 144.729 14.6307C146.176 16.0368 146.9 17.7373 146.9 19.7323C146.9 21.7464 146.176 23.4659 144.729 24.891ZM136.97 22.2689C137.665 22.9529 138.514 23.2949 139.518 23.2949C140.521 23.2949 141.371 22.9529 142.065 22.2689C142.78 21.5659 143.137 20.7204 143.137 19.7323C143.137 18.7633 142.78 17.9368 142.065 17.2528C141.371 16.5498 140.521 16.1983 139.518 16.1983C138.514 16.1983 137.665 16.5498 136.97 17.2528C136.275 17.9368 135.928 18.7633 135.928 19.7323C135.928 20.7204 136.275 21.5659 136.97 22.2689Z" fill="white"/>
<path d="M152.535 26.8005H148.771V4H152.535V17.0248L157.138 12.6927H162.639L156.038 18.9628L164 26.8005H158.528L152.535 20.8724V26.8005Z" fill="white"/>
<defs>
<linearGradient id="paint0_linear_60_1020" x1="3.5" y1="4.5" x2="29" y2="32" gradientUnits="userSpaceOnUse">
<stop stop-color="#84A9FF"/>
<stop offset="1" stop-color="#1D58D8"/>
</linearGradient>
</defs>
</svg>
