<svg width="32" height="32" viewBox="0 0 32 32" fill="none" xmlns="http://www.w3.org/2000/svg">
<rect width="32" height="32" rx="8" fill="url(#paint0_linear_68_115)"/>
<path d="M15.4253 26C13.9808 26 12.7024 25.6173 11.59 24.852C10.4943 24.0867 9.63091 22.9898 9 21.5612L12.0632 19.9541C12.7273 21.6378 13.8729 22.4796 15.5 22.4796C16.3467 22.4796 17.0607 22.267 17.6418 21.8418C18.2229 21.4167 18.5134 20.8895 18.5134 20.2602C18.5134 19.665 18.3225 19.1718 17.9406 18.7806C17.5754 18.3895 17.0192 18.0153 16.272 17.6582C15.857 17.4711 15.2925 17.25 14.5785 16.9949C13.8646 16.7228 13.2503 16.4677 12.7356 16.2296C11.7561 15.7874 10.9757 15.1582 10.3946 14.3418C9.81354 13.5085 9.52299 12.5391 9.52299 11.4337C9.52299 9.78401 10.0626 8.46599 11.1418 7.47959C12.2375 6.4932 13.599 6 15.2261 6C16.6207 6 17.7331 6.30612 18.5632 6.91837C19.41 7.5136 20.1654 8.32143 20.8295 9.34184L17.841 11.2296C17.1437 10.0901 16.2554 9.52041 15.1762 9.52041C14.5619 9.52041 14.0473 9.69898 13.6322 10.0561C13.2171 10.3963 13.0096 10.8299 13.0096 11.3571C13.0096 12.0714 13.4911 12.6412 14.454 13.0663C14.7197 13.1854 15.3008 13.432 16.1973 13.8061C17.1105 14.1633 17.8825 14.4864 18.5134 14.7755C19.5594 15.2517 20.3978 15.949 21.0287 16.8673C21.6762 17.7687 22 18.8061 22 19.9796C22 21.7993 21.3774 23.2619 20.1322 24.3673C18.9036 25.4558 17.3346 26 15.4253 26Z" fill="white"/>
<defs>
<linearGradient id="paint0_linear_68_115" x1="3.5" y1="4.5" x2="29" y2="32" gradientUnits="userSpaceOnUse">
<stop stop-color="#84A9FF"/>
<stop offset="1" stop-color="#1D58D8"/>
</linearGradient>
</defs>
</svg>
